<svg width="28" height="28" viewBox="0 0 28 28" fill="none" xmlns="http://www.w3.org/2000/svg">
<path d="M8.75 8.94834V7.81668C8.75 5.19168 10.8617 2.61334 13.4867 2.36834C16.6133 2.06501 19.25 4.52668 19.25 7.59501V9.20501" stroke="#D17D2F" stroke-miterlimit="10" stroke-linecap="round" stroke-linejoin="round"/>
<path d="M10.5 25.6666H17.5C22.19 25.6666 23.03 23.7883 23.275 21.5016L24.15 14.5016C24.465 11.655 23.6483 9.33331 18.6667 9.33331H9.33334C4.35168 9.33331 3.53501 11.655 3.85001 14.5016L4.72501 21.5016C4.97001 23.7883 5.81001 25.6666 10.5 25.6666Z" stroke="#D17D2F" stroke-miterlimit="10" stroke-linecap="round" stroke-linejoin="round"/>
<path d="M14.0373 23.1392C13.381 23.1392 12.796 23.0265 12.2823 22.8011C11.7719 22.5758 11.3659 22.2625 11.0643 21.8615C10.766 21.4571 10.6036 20.9882 10.5771 20.4545H11.8299C11.8564 20.7827 11.9691 21.0661 12.168 21.3047C12.3668 21.54 12.627 21.7223 12.9485 21.8516C13.27 21.9808 13.6263 22.0455 14.0174 22.0455C14.4549 22.0455 14.8427 21.9692 15.1808 21.8168C15.5188 21.6643 15.784 21.4522 15.9762 21.1804C16.1684 20.9086 16.2646 20.5938 16.2646 20.2358C16.2646 19.8613 16.1718 19.5315 15.9862 19.2464C15.8005 18.9581 15.5288 18.7327 15.1708 18.5703C14.8129 18.4079 14.3754 18.3267 13.8583 18.3267H13.043V17.233H13.8583C14.2627 17.233 14.6173 17.16 14.9222 17.0142C15.2305 16.8684 15.4708 16.6629 15.6431 16.3977C15.8188 16.1326 15.9066 15.821 15.9066 15.4631C15.9066 15.1184 15.8304 14.8184 15.6779 14.5632C15.5254 14.308 15.31 14.1091 15.0316 13.9666C14.7565 13.8241 14.4317 13.7528 14.0572 13.7528C13.7058 13.7528 13.3744 13.8175 13.0629 13.9467C12.7546 14.0727 12.5027 14.2566 12.3072 14.4986C12.1116 14.7372 12.0056 15.0256 11.989 15.3636H10.7958C10.8157 14.83 10.9764 14.3627 11.2781 13.9616C11.5797 13.5573 11.9741 13.2424 12.4613 13.017C12.9518 12.7917 13.4904 12.679 14.0771 12.679C14.7068 12.679 15.247 12.8066 15.6978 13.0618C16.1486 13.3137 16.4949 13.6468 16.7369 14.0611C16.9788 14.4754 17.0998 14.9228 17.0998 15.4034C17.0998 15.9768 16.949 16.4657 16.6474 16.87C16.3491 17.2744 15.9431 17.5545 15.4293 17.7102V17.7898C16.0723 17.8958 16.5745 18.1693 16.9357 18.6101C17.297 19.0476 17.4776 19.5895 17.4776 20.2358C17.4776 20.7893 17.3268 21.2865 17.0252 21.7273C16.7269 22.1648 16.3192 22.5095 15.8022 22.7614C15.2852 23.0133 14.6969 23.1392 14.0373 23.1392Z" fill="#D17D2F"/>
</svg>
